<svg version="1.1" id="Layer_1" xmlns="http://www.w3.org/2000/svg" xmlns:xlink="http://www.w3.org/1999/xlink" x="0px" y="0px"
	 width="100%" viewBox="0 0 756 846" enable-background="new 0 0 756 846" xml:space="preserve">
<path fill="#000000" opacity="1.000000" stroke="none"
	d="
M264.000000,0.999999 
	C269.689484,1.000000 275.378937,1.000000 281.630188,1.341173 
	C283.165405,2.483582 284.467682,3.095340 285.056885,4.117960 
	C288.030884,9.279618 291.186920,14.384285 293.605988,19.809099 
	C302.012329,38.660610 310.075226,57.664890 318.391663,76.556976 
	C327.653290,97.596298 337.082611,118.561745 346.377411,139.586563 
	C355.677277,160.622803 364.855865,181.712692 374.174530,202.740555 
	C380.085785,216.079468 386.250061,229.306549 392.127594,242.660034 
	C397.725800,255.378723 402.972565,268.252502 408.604553,280.955811 
	C415.047424,295.488068 421.839905,309.865143 428.304535,324.388000 
	C434.571350,338.466400 440.567444,352.665070 446.768311,366.773163 
	C455.027466,385.564514 463.624115,404.213989 471.476318,423.172699 
	C473.189880,427.310089 473.991119,433.131561 472.438721,437.089569 
	C465.659241,454.374664 457.982513,471.314819 450.389465,488.271820 
	C443.870148,502.830872 436.856049,517.168640 430.357635,531.736694 
	C419.738251,555.543030 409.268555,579.417419 398.907715,603.337524 
	C389.669403,624.666077 380.848145,646.176208 371.511200,667.460754 
	C358.599701,696.893982 345.377380,726.190979 332.287750,755.546021 
	C324.993561,771.904236 317.752350,788.286438 310.387024,804.612549 
	C303.998016,818.774780 297.467804,832.873291 291.000000,847.000000 
	C194.370132,847.000000 97.740265,847.000000 1.000000,847.000000 
	C1.000000,565.644043 1.000000,284.288055 1.465069,2.529003 
	C3.593896,2.093720 5.257659,2.033108 6.921412,2.033391 
	C90.800941,2.047654 174.680466,2.073948 258.559967,2.040634 
	C260.373444,2.039913 262.186676,1.362005 264.000000,0.999999 
z"/>
<path fill="#FE0A87" opacity="1.000000" stroke="none" 
	d="
M573.000000,847.000000 
	C488.312439,847.000000 403.624878,847.000000 318.462830,846.632751 
	C323.458405,833.591248 328.801971,820.860474 334.426514,808.255127 
	C344.252502,786.233948 354.417694,764.363159 364.133148,742.293884 
	C374.848236,717.954041 385.146576,693.431152 395.758240,669.045288 
	C404.777588,648.318481 413.970093,627.666992 423.111755,606.993469 
	C433.526703,583.440430 443.963867,559.897156 454.402771,536.354736 
	C469.027557,503.372040 483.597534,470.364624 498.372589,437.449371 
	C500.318634,433.113953 500.346832,429.333221 498.455872,425.090393 
	C490.967896,408.289215 483.643188,391.415344 476.241974,374.575470 
	C466.491180,352.389648 456.723724,330.211151 446.966522,308.028168 
	C437.884277,287.379730 428.851379,266.709412 419.714630,246.085144 
	C408.210907,220.117889 396.572296,194.210312 385.093079,168.232285 
	C378.858215,154.122482 372.948181,139.868851 366.684479,125.772110 
	C358.860748,108.164467 350.685150,90.712669 342.914032,73.082245 
	C333.132599,50.890949 323.700592,28.545145 313.827637,6.395356 
	C312.819031,4.132610 312.845886,2.770883 314.000000,1.000000 
	C315.066681,1.000000 316.133331,1.000000 317.847229,1.350894 
	C319.313354,1.800654 320.132141,1.984563 320.951233,1.986122 
	C353.391754,2.047873 385.832275,2.136013 418.272827,2.130365 
	C467.182037,2.121850 516.091248,2.046320 565.283569,2.196610 
	C566.759949,4.579772 568.101990,6.698436 569.123108,8.961910 
	C578.901428,30.637678 588.687866,52.310219 598.348145,74.038734 
	C608.332153,96.495415 618.169983,119.017105 628.088074,141.503143 
	C637.279297,162.341385 646.484619,183.173401 655.697327,204.002197 
	C666.180664,227.703659 676.711426,251.384216 687.160339,275.100861 
	C695.530273,294.098541 703.746887,313.163879 712.141785,332.150482 
	C725.713867,362.846069 739.251221,393.558441 753.117371,424.121246 
	C755.591614,429.574799 755.218384,434.156738 752.798767,439.274170 
	C748.541992,448.277252 744.529358,457.398621 740.551147,466.529968 
	C729.925293,490.920105 719.433960,515.368958 708.771423,539.742981 
	C698.861267,562.396912 688.803955,584.986450 678.802979,607.600586 
	C668.314392,631.317322 657.809631,655.026917 647.323669,678.744751 
	C639.059021,697.438049 630.793274,716.130737 622.562073,734.838806 
	C612.457764,757.803955 602.421082,780.798889 592.292908,803.753479 
	C585.920959,818.195007 579.434875,832.586182 573.000000,847.000000 
z"/>
<path fill="#FFFEFF" opacity="1.000000" stroke="none" 
	d="
M573.468628,847.000000 
	C579.434875,832.586182 585.920959,818.195007 592.292908,803.753479 
	C602.421082,780.798889 612.457764,757.803955 622.562073,734.838806 
	C630.793274,716.130737 639.059021,697.438049 647.323669,678.744751 
	C657.809631,655.026917 668.314392,631.317322 678.802979,607.600586 
	C688.803955,584.986450 698.861267,562.396912 708.771423,539.742981 
	C719.433960,515.368958 729.925293,490.920105 740.551147,466.529968 
	C744.529358,457.398621 748.541992,448.277252 752.798767,439.274170 
	C755.218384,434.156738 755.591614,429.574799 753.117371,424.121246 
	C739.251221,393.558441 725.713867,362.846069 712.141785,332.150482 
	C703.746887,313.163879 695.530273,294.098541 687.160339,275.100861 
	C676.711426,251.384216 666.180664,227.703659 655.697327,204.002197 
	C646.484619,183.173401 637.279297,162.341385 628.088074,141.503143 
	C618.169983,119.017105 608.332153,96.495415 598.348145,74.038734 
	C588.687866,52.310219 578.901428,30.637678 569.123108,8.961910 
	C568.101990,6.698436 566.759949,4.579772 565.260986,1.946801 
	C564.970154,1.333105 564.985046,1.166552 565.000000,1.000000 
	C628.977051,1.000000 692.954163,1.000000 756.965576,1.000000 
	C756.965576,282.876068 756.965576,564.752136 756.965576,847.000000 
	C695.979614,847.000000 634.958435,847.000000 573.468628,847.000000 
z"/>
<path fill="#FDFBFC" opacity="1.000000" stroke="none" 
	d="
M313.531342,1.000000 
	C312.845886,2.770883 312.819031,4.132610 313.827637,6.395356 
	C323.700592,28.545145 333.132599,50.890949 342.914032,73.082245 
	C350.685150,90.712669 358.860748,108.164467 366.684479,125.772110 
	C372.948181,139.868851 378.858215,154.122482 385.093079,168.232285 
	C396.572296,194.210312 408.210907,220.117889 419.714630,246.085144 
	C428.851379,266.709412 437.884277,287.379730 446.966522,308.028168 
	C456.723724,330.211151 466.491180,352.389648 476.241974,374.575470 
	C483.643188,391.415344 490.967896,408.289215 498.455872,425.090393 
	C500.346832,429.333221 500.318634,433.113953 498.372589,437.449371 
	C483.597534,470.364624 469.027557,503.372040 454.402771,536.354736 
	C443.963867,559.897156 433.526703,583.440430 423.111755,606.993469 
	C413.970093,627.666992 404.777588,648.318481 395.758240,669.045288 
	C385.146576,693.431152 374.848236,717.954041 364.133148,742.293884 
	C354.417694,764.363159 344.252502,786.233948 334.426514,808.255127 
	C328.801971,820.860474 323.458405,833.591248 317.994171,846.632751 
	C309.312439,847.000000 300.624878,847.000000 291.468628,847.000000 
	C297.467804,832.873291 303.998016,818.774780 310.387024,804.612549 
	C317.752350,788.286438 324.993561,771.904236 332.287750,755.546021 
	C345.377380,726.190979 358.599701,696.893982 371.511200,667.460754 
	C380.848145,646.176208 389.669403,624.666077 398.907715,603.337524 
	C409.268555,579.417419 419.738251,555.543030 430.357635,531.736694 
	C436.856049,517.168640 443.870148,502.830872 450.389465,488.271820 
	C457.982513,471.314819 465.659241,454.374664 472.438721,437.089569 
	C473.991119,433.131561 473.189880,427.310089 471.476318,423.172699 
	C463.624115,404.213989 455.027466,385.564514 446.768311,366.773163 
	C440.567444,352.665070 434.571350,338.466400 428.304535,324.388000 
	C421.839905,309.865143 415.047424,295.488068 408.604553,280.955811 
	C402.972565,268.252502 397.725800,255.378723 392.127594,242.660034 
	C386.250061,229.306549 380.085785,216.079468 374.174530,202.740555 
	C364.855865,181.712692 355.677277,160.622803 346.377411,139.586563 
	C337.082611,118.561745 327.653290,97.596298 318.391663,76.556976 
	C310.075226,57.664890 302.012329,38.660610 293.605988,19.809099 
	C291.186920,14.384285 288.030884,9.279618 285.056885,4.117960 
	C284.467682,3.095340 283.165405,2.483582 282.095978,1.341173 
	C292.354218,1.000000 302.708466,1.000000 313.531342,1.000000 
z"/>
<path fill="#7D7D7D" opacity="1.000000" stroke="none" 
	d="
M263.531342,0.999999 
	C262.186676,1.362005 260.373444,2.039913 258.559967,2.040634 
	C174.680466,2.073948 90.800941,2.047654 6.921412,2.033391 
	C5.257659,2.033108 3.593896,2.093720 1.465069,2.062961 
	C2.496957,1.666667 3.993756,1.042435 5.490894,1.041621 
	C91.348145,0.994927 177.205414,1.000000 263.531342,0.999999 
z"/>
<path fill="#FF91C9" opacity="1.000000" stroke="none" 
	d="
M564.531372,1.000000 
	C564.985046,1.166552 564.970154,1.333105 564.977844,1.749466 
	C516.091248,2.046320 467.182037,2.121850 418.272827,2.130365 
	C385.832275,2.136013 353.391754,2.047873 320.951233,1.986122 
	C320.132141,1.984563 319.313354,1.800654 318.247223,1.350894 
	C400.020905,1.000000 482.041779,1.000000 564.531372,1.000000 
z"/>
</svg>